<?xml version="1.0" encoding="UTF-8"?>
<svg id="Layer_1" xmlns="http://www.w3.org/2000/svg" version="1.1" viewBox="0 0 595.3 243.7">
  <!-- Generator: Adobe Illustrator 30.1.0, SVG Export Plug-In . SVG Version: 2.1.1 Build 136)  -->
  <path d="M300,50.9l1.3,18.2h-3.9c-4.6-10.8-5.8-13.8-13.1-13.8h-4.9v44.4c0,4.9,2.8,5.9,8.3,6v4h-27.2v-4c5.6-.2,8.3-1.1,8.3-6v-44.4h-4.9c-7.3,0-8.5,3-13.1,13.8h-3.8l1.3-18.2h51.7,0Z"/>
  <path d="M340.2,90.8h-23.4l-3.1,7.9c-.5,1.3-.9,2.4-.9,3.3,0,2.6,1.8,3.5,7.3,3.7v4h-18.8v-4c2.3-.3,4-.8,4.9-3.1l19.1-46.3-2.7-5.9h11.6l22.5,52.2c.9,2.2,2.5,2.8,4.9,3.1v4h-24.4v-4c5.5-.2,7.2-1,7.2-3.6s-.3-2.1-.9-3.3l-3.3-8h0ZM318.5,86.4h19.9l-10.1-24.4-9.8,24.4Z"/>
  <path d="M287.6,134.1c0-4.9-2.3-5.8-8-5.9v-4h26.5v4c-5.4.2-7.9,1.1-7.9,5.9v38.8c0,4.9,2.4,5.9,7.9,6v4h-26.5v-4c5.6-.2,8-1.1,8-6v-38.8ZM328.1,172.5c4.3,5.2,6.4,6.2,10.1,6.4v4h-13.6c-2.8-1.6-4.9-3.9-8-7.7l-17.5-22.2,19.9-19.2c1.1-1,2-2,2-3.3s-.9-2.2-6.2-2.4v-4h21.5v4c-3.8.2-5.9,1.4-8.5,3.9l-18.3,17.6,18.5,22.8h.1Z"/>
</svg>