<?xml version="1.0" encoding="UTF-8"?>
<svg id="Layer_1" xmlns="http://www.w3.org/2000/svg" version="1.1" viewBox="0 0 595.3 243.7">
  <!-- Generator: Adobe Illustrator 30.1.0, SVG Export Plug-In . SVG Version: 2.1.1 Build 136)  -->
  <path d="M104.4,50.9l1.3,18.2h-3.9c-4.6-10.8-5.8-13.8-13.1-13.8h-4.9v44.4c0,4.9,2.8,5.9,8.3,6v4h-27.2v-4c5.6-.2,8.3-1.1,8.3-6v-44.4h-4.9c-7.3,0-8.5,3-13.1,13.8h-3.8l1.3-18.2h51.7Z"/>
  <path d="M143.3,98.7c0,3.3,1.1,5.3,3.4,5.3s2.6-.2,3.9-.5l.5,2.7c-2.8,2.8-6,4.4-9.5,4.4s-6.9-3.1-7.9-7.6c-2.9,3.5-7.5,7.5-13.8,7.5s-11.3-5-11.3-11.5,5.9-10.4,11.6-12.3l13.3-4.8v-4.4c0-5.4-1.7-9.1-7.2-9.1s-6.1,2-6.1,5.9.2,3,.6,4.8l-7.4,1.1c-1.6-1.1-2.3-2.7-2.3-4.9,0-7.3,7.1-11.1,16.7-11.1s15.8,4.6,15.8,15.3-.3,16.8-.3,19.4ZM133.4,100.7v-14.6l-9.8,3.8c-3.1,1.2-4.9,3.4-4.9,6.6,0,4.6,2.3,7.2,6.3,7.2s5.5-.9,8.4-2.9Z"/>
  <path d="M188.8,78.6c0-5.2-2.1-7.3-7-7.3s-8.1,1.6-11,3.6v26.3c0,3.9,2.1,4.3,5.9,4.8v3.8h-22v-3.8c3.7-.5,6-.9,6-4.8v-27.3l-5.6-3.6v-2.1l13.4-4.4h2.3v8.5c3.9-4,9-8.4,16.1-8.4s12.1,4.1,12.1,13.7v23.4c0,3.9,2.3,4.3,6,4.8v3.8h-22.1v-3.8c3.8-.5,5.9-.9,5.9-4.8v-22.6Z"/>
  <path d="M225.6,101.2c0,3.9,2.3,4.3,6,4.8v3.8h-22.3v-3.8c3.8-.5,6.1-.9,6.1-4.8v-45.5l-5.7-3.6v-2.1l13.6-3.9h2.3v55.2ZM239.3,73.5c.9-.9,1.6-1.7,1.6-2.5,0-1.5-1.3-1.8-6-2.4v-3.7h19.9v3.7c-3.3.8-5,1.4-6.9,3.3l-11.6,10.8,20.2,24.2v2.9h-10.8l-19.3-23.9,12.9-12.3Z"/>
  <path d="M297.5,82.8v2.8h-29.2c0,10.1,5.7,16.9,14.6,16.9s9.9-2.8,12.9-6.8l1.8,1.1c-2.1,8.1-8.5,13.7-18.3,13.7s-20.1-9.3-20.1-21.9,9-24.7,20.9-24.7,17.3,8,17.3,18.8ZM268.5,81.3h19.5c0-7.7-3.1-12.7-9.2-12.7s-9.6,5.9-10.3,12.7Z"/>
  <path d="M340.2,90.8h-23.4l-3.1,7.9c-.5,1.3-.9,2.4-.9,3.3,0,2.6,1.8,3.5,7.3,3.7v4h-18.8v-4c2.3-.3,4-.8,4.9-3.1l19.1-46.3-2.7-5.9h11.6l22.5,52.2c.9,2.2,2.5,2.8,4.9,3.1v4h-24.4v-4c5.5-.2,7.2-1,7.2-3.6s-.3-2.1-.9-3.3l-3.3-8ZM318.5,86.4h19.9l-10.1-24.4-9.8,24.4Z"/>
  <path d="M381.6,77.6c4.8-10.2,7.3-13.6,12.6-13.6s2.6.5,3.3,1.1v9.2h-1.8c-5.2,0-9.1.7-14.1,6v20.7c0,4,2,4.3,7.7,4.9v3.8h-23.9v-3.8c3.7-.5,6-.9,6-4.8v-27.3l-5.6-3.6v-2.1l13.3-4.4h2.4v13.7Z"/>
  <path d="M440,82.8v2.8h-29.2c0,10.1,5.7,16.9,14.6,16.9s9.9-2.8,12.9-6.8l1.8,1.1c-2.1,8.1-8.5,13.7-18.2,13.7s-20.1-9.3-20.1-21.9,9-24.7,20.9-24.7,17.3,8,17.3,18.8ZM411,81.3h19.5c0-7.7-3.1-12.7-9.2-12.7s-9.6,5.9-10.3,12.7Z"/>
  <path d="M480.6,78.6c0-5.2-2.1-7.3-7-7.3s-8.1,1.6-11,3.6v26.3c0,3.9,2.1,4.3,5.9,4.8v3.8h-22v-3.8c3.7-.5,6-.9,6-4.8v-27.3l-5.6-3.6v-2.1l13.4-4.4h2.3v8.5c3.9-4,9-8.4,16.1-8.4s12.1,4.1,12.1,13.7v23.4c0,3.9,2.3,4.3,6,4.8v3.8h-22.1v-3.8c3.8-.5,5.9-.9,5.9-4.8v-22.6Z"/>
  <path d="M536.8,98.7c0,3.3,1.1,5.3,3.4,5.3s2.6-.2,3.9-.5l.5,2.7c-2.8,2.8-6,4.4-9.5,4.4s-6.9-3.1-7.9-7.6c-2.9,3.5-7.5,7.5-13.8,7.5s-11.3-5-11.3-11.5,5.9-10.4,11.6-12.3l13.3-4.8v-4.4c0-5.4-1.7-9.1-7.2-9.1s-6.1,2-6.1,5.9.2,3,.6,4.8l-7.4,1.1c-1.6-1.1-2.3-2.7-2.3-4.9,0-7.3,7.1-11.1,16.7-11.1s15.8,4.6,15.8,15.3-.3,16.8-.3,19.4ZM527,100.7v-14.6l-9.8,3.8c-3.1,1.2-4.9,3.4-4.9,6.6,0,4.6,2.3,7.2,6.3,7.2s5.5-.9,8.4-2.9Z"/>
  <path d="M151.4,139.3l6.9-1.6c2.6-12,8.4-18.9,18.8-18.9s10,2.3,10,6.5-1.6,4.6-4.2,5.4h-2.7c0-4.6-1.4-8.5-4.7-8.5s-6.3,3.9-7.4,15.8h10.3l-.7,4.5h-10.1l-5.3,25.3c-5,24.4-11.3,32.4-21.3,32.4s-8.5-2.1-8.5-5.6,2.5-5,5-5.5h1.6c.6,4.6,1.9,7.5,4.6,7.5s4.3-2.3,7.3-19.1l6.2-35h-6.7l.7-3.3Z"/>
  <path d="M177.7,166.2c0-14.4,10-29,24.5-29s15.7,6.4,15.7,17.6-10,29-24.5,29-15.7-6.4-15.7-17.6ZM207.9,152.1c0-6.8-2.1-10.9-6-10.9-8.7,0-14.2,16.6-14.2,27.9s2.1,10.8,6,10.8c8.7,0,14.2-16.6,14.2-27.8ZM191,126.3c0-3.3,2.5-6.1,6-6.1s5.5,2.4,5.5,5.5-2.6,6.1-6,6.1-5.5-2.5-5.5-5.5ZM207.4,126.3c0-3.3,2.5-6.1,5.9-6.1s5.6,2.4,5.6,5.5-2.6,6.1-6,6.1-5.5-2.5-5.5-5.5Z"/>
  <path d="M234.8,165.2c9.2-18.4,14.7-28,20.8-28s5.2,2.7,5.2,5.6-2.7,6.5-5.9,8h-1.4c0-1.6-.4-3.1-2.3-3.1-4.9,0-14.6,14.5-19.7,35.2h-9.9l9.3-37.7-5.7-2.9.6-2.1,14.3-3.1h2.3l-3.4,13.5-4.8,14.6h.6Z"/>
  <path d="M287.6,134.1c0-4.9-2.3-5.8-8-5.9v-4h26.5v4c-5.4.2-7.9,1.1-7.9,5.9v38.8c0,4.9,2.4,5.9,7.9,6v4h-26.5v-4c5.6-.2,8-1.1,8-6v-38.8ZM328.1,172.5c4.3,5.2,6.4,6.2,10.1,6.4v4h-13.6c-2.8-1.6-4.9-3.9-8-7.7l-17.5-22.2,19.9-19.2c1.1-1,2-2,2-3.3s-.9-2.2-6.2-2.4v-4h21.5v4c-3.8.2-5.9,1.4-8.5,3.9l-18.3,17.6,18.5,22.8Z"/>
  <path d="M372.1,175.6c-3.8,3.9-8.5,8.2-15.6,8.2s-12.1-4.1-12.1-13.9v-21.9c0-2.8-.8-3.9-4.4-4.5l-1.3-.3v-3.4l14.2-2.5h1.8v31.4c0,5.5,2.2,8,6.9,8s7.5-1.6,10.5-3.5v-25.2c0-2.8-.8-3.9-4.4-4.5l-1.3-.3v-3.4l14.1-2.5h1.8v35.7c0,2.8.8,3.7,4.2,4l2.1.2v3.8l-14.6,2.8h-1.8v-8.2Z"/>
  <path d="M409.5,174.4c0,3.9,2.3,4.3,6,4.8v3.8h-22.2v-3.8c3.8-.5,6.1-.9,6.1-4.8v-45.5l-5.7-3.6v-2.1l13.5-3.9h2.3v55.2Z"/>
  <path d="M435.4,138.1h12.3v5h-12.3v28.2c0,4.4,1.9,6,6.2,6s5.1-.7,7.2-1.8l1.1,2.6c-3.2,3.4-7.8,5.6-13.6,5.6s-11-3.2-11-10.9v-29.8h-6v-3.2c4.7-2.4,9.2-6.4,13.1-11.7h3v9.9Z"/>
  <path d="M485.8,175.6c-3.8,3.9-8.5,8.2-15.6,8.2s-12.1-4.1-12.1-13.9v-21.9c0-2.8-.8-3.9-4.4-4.5l-1.3-.3v-3.4l14.2-2.5h1.8v31.4c0,5.5,2.2,8,6.9,8s7.5-1.6,10.5-3.5v-25.2c0-2.8-.8-3.9-4.4-4.5l-1.3-.3v-3.4l14.1-2.5h1.8v35.7c0,2.8.8,3.7,4.2,4l2.1.2v3.8l-14.6,2.8h-1.8v-8.2Z"/>
  <path d="M523.9,150.8c4.8-10.2,7.3-13.6,12.6-13.6s2.6.5,3.3,1.1v9.2h-1.8c-5.2,0-9.1.7-14.1,6v20.7c0,4,2,4.3,7.7,4.9v3.8h-23.9v-3.8c3.7-.5,6-.9,6-4.8v-27.3l-5.6-3.6v-2.1l13.3-4.4h2.4v13.7Z"/>
</svg>