<svg xmlns="http://www.w3.org/2000/svg" version="1.1" id="Layer_1" viewBox="0 0 342 384.8" width="342" height="384.8"><metadata><rdf:RDF xmlns:rdf="http://www.w3.org/1999/02/22-rdf-syntax-ns#" xmlns:dc="http://purl.org/dc/elements/1.1/"><rdf:Description><dc:creator>RealFaviconGenerator</dc:creator><dc:source>https://realfavicongenerator.net</dc:source></rdf:Description></rdf:RDF></metadata><path d="M163.2,44.3l2.8,40.8h-8.6c-10.3-24.2-13-31-29.3-31h-11.1v99.5c0,11.1,6.2,13.1,18.6,13.5v9h-61v-9c12.6-.4,18.6-2.4,18.6-13.5V54.1h-10.9c-16.3,0-19,6.8-29.5,31h-8.5l2.8-40.8h116.1Z"></path><path d="M249.4,133.7h-52.6l-6.9,17.7c-1.1,2.8-2.1,5.4-2.1,7.5,0,5.8,3.9,7.9,16.3,8.3v9h-42.1v-9c5.1-.8,9-1.9,11.1-6.9l42.8-103.9-6-13.3h26.1l50.5,117.2c2.1,4.9,5.6,6.2,11.1,6.9v9h-54.8v-9c12.4-.4,16.1-2.3,16.1-8.1s-.8-4.7-2.1-7.5l-7.5-17.8ZM200.7,124h44.7l-22.7-54.6-22,54.6Z"></path><path d="M131.2,231c0-10.9-5.3-13-17.8-13.3v-9h59.5v9c-12.2.4-17.7,2.4-17.7,13.3v86.9c0,11.1,5.4,13.1,17.7,13.5v9h-59.5v-9c12.6-.4,17.8-2.4,17.8-13.5v-86.9ZM222.1,317c9.6,11.6,14.5,13.9,22.7,14.5v9h-30.4c-6.2-3.6-11.1-8.6-18-17.3l-39.3-49.8,44.7-43c2.4-2.3,4.5-4.5,4.5-7.3s-2.1-4.9-13.9-5.4v-9h48.3v9c-8.5.4-13.1,3.2-19,8.8l-41.1,39.4,41.5,51.1Z"></path></svg>